<svg width="21" height="22" viewBox="0 0 21 22" fill="none" xmlns="http://www.w3.org/2000/svg">
  <path
    d="M7.99632 17.5639L2.4005 21.4395C2.18186 21.5986 1.92453 21.6962 1.65531 21.7222C1.38609 21.7482 1.11482 21.7017 0.869725 21.5874C0.624631 21.4731 0.414677 21.2952 0.261718 21.0723C0.108758 20.8494 0.0183829 20.5896 0 20.32L0 4.9567C0.0177876 4.38395 0.14832 3.82031 0.38414 3.29798C0.619961 2.77564 0.956451 2.30484 1.37439 1.91247C1.79233 1.5201 2.28354 1.21384 2.81995 1.01119C3.35636 0.808532 3.92747 0.713455 4.50065 0.731384H16.4993C17.0725 0.713455 17.6436 0.808532 18.1801 1.01119C18.7165 1.21384 19.2077 1.5201 19.6256 1.91247C20.0435 2.30484 20.38 2.77564 20.6159 3.29798C20.8517 3.82031 20.9822 4.38395 21 4.9567V13.3524C20.9822 13.9251 20.8517 14.4887 20.6159 15.0111C20.38 15.5334 20.0435 16.0042 19.6256 16.3966C19.2077 16.789 18.7165 17.0952 18.1801 17.2979C17.6436 17.5005 17.0725 17.5956 16.4993 17.5777H7.99632V17.5639Z"
    fill="#84BD00" />
</svg>